<svg xmlns="http://www.w3.org/2000/svg" width="512" height="512" viewBox="0 0 512 512" version="1.1">
	<path d="M 410.130 48.544 C 408.467 49.943, 406.828 51.968, 406.486 53.044 C 406.119 54.201, 404.973 54.998, 403.683 54.995 C 398.306 54.983, 391.405 58.575, 385.441 64.491 C 379.404 70.479, 379.361 70.564, 373.099 88.659 C 369.644 98.646, 366.162 107.751, 365.363 108.892 C 364.564 110.033, 362.505 111.330, 360.788 111.775 C 353.992 113.536, 354.581 118.360, 361.888 120.796 C 365.273 121.924, 365.973 122.544, 365.342 123.856 C 364.907 124.760, 364.542 127.611, 364.531 130.190 C 364.495 138.848, 372.690 144.139, 380.437 140.463 C 384.637 138.470, 387 135.523, 387 132.277 C 387 131.025, 387.413 130, 387.917 130 C 388.421 130, 397.301 132.943, 407.650 136.539 C 417.999 140.135, 427.369 142.948, 428.473 142.789 C 431.400 142.367, 431.554 139.176, 428.884 134.288 L 426.540 129.997 432.770 111.221 C 441.136 86.006, 441.114 78.801, 432.637 67.143 C 430.094 63.647, 429.137 61.156, 428.759 57.059 C 428.343 52.554, 427.716 51.136, 425.113 48.809 C 420.849 45, 414.477 44.887, 410.130 48.544 M 415.143 53.890 C 413.601 54.868, 414.315 55.440, 418.250 56.381 C 421.427 57.140, 421.967 55.588, 419.066 54.035 C 416.762 52.802, 416.855 52.806, 415.143 53.890 M 402.138 63.130 C 397.284 64.025, 392.292 67.409, 388.645 72.279 C 387.318 74.050, 383.627 83.150, 380.442 92.500 C 377.257 101.850, 373.780 110.763, 372.716 112.308 C 371.652 113.852, 370.943 115.236, 371.141 115.383 C 371.338 115.530, 382.188 119.288, 395.250 123.735 L 419 131.819 419 129.053 C 419 127.531, 421.743 118.234, 425.096 108.393 C 430.635 92.132, 431.157 89.888, 430.815 83.793 C 430.324 75.019, 426.809 69.697, 418.961 65.843 C 412.602 62.721, 408.204 62.011, 402.138 63.130 M 100.965 67.537 L 98.581 70.075 118.281 89.774 L 137.980 109.474 140.724 106.730 L 143.468 103.987 123.993 84.493 C 113.283 73.772, 104.256 65, 103.934 65 C 103.612 65, 102.276 66.142, 100.965 67.537 M 92.264 75.579 L 89.027 76.995 91.112 82.247 C 92.259 85.136, 94.042 89.627, 95.074 92.226 L 96.952 96.952 91.976 94.976 C 89.239 93.889, 84.753 92.108, 82.006 91.017 L 77.013 89.034 75.493 92.671 C 74.657 94.671, 74.092 96.390, 74.237 96.491 C 74.382 96.592, 80.436 99.036, 87.691 101.922 L 100.882 107.169 106.173 120.472 C 111.370 133.538, 111.508 133.758, 113.982 132.857 C 115.367 132.353, 117.062 131.743, 117.748 131.502 C 118.689 131.172, 118.504 129.826, 116.998 126.032 C 115.899 123.264, 114.111 118.761, 113.024 116.024 L 111.048 111.048 115.774 112.926 C 118.373 113.958, 122.874 115.745, 125.776 116.897 L 131.053 118.992 132.056 116.246 C 132.608 114.736, 133.217 113.041, 133.410 112.479 C 133.603 111.918, 127.770 109.075, 120.447 106.163 L 107.133 100.867 101.816 87.442 C 98.892 80.058, 96.275 74.049, 96 74.090 C 95.725 74.130, 94.044 74.800, 92.264 75.579 M 238.675 96.985 C 193.395 102.720, 154.445 125.404, 127.038 162 C 118.935 172.820, 108.477 193.100, 104.090 206.500 C 91.188 245.913, 94.174 288.507, 112.441 325.609 L 117.556 336 114.778 336 L 112 336 112 364 L 112 392 116 392 L 120 392 120.004 365.750 L 120.007 339.500 122.130 343 C 126.353 349.965, 136.953 362.670, 145.138 370.577 C 168.580 393.220, 196.718 407.603, 229.500 413.699 C 241.837 415.993, 270.163 415.993, 282.500 413.699 C 350.289 401.093, 401.093 350.289, 413.699 282.500 C 415.993 270.163, 415.993 241.837, 413.699 229.500 C 401.154 162.040, 349.800 110.462, 283.262 98.496 C 272.785 96.612, 248.199 95.778, 238.675 96.985 M 239 105.035 C 194.180 110.526, 154.717 134.278, 130.233 170.500 C 96.314 220.678, 95.637 288.094, 128.542 338.722 C 154.345 378.421, 194.929 402.648, 243.201 407.170 C 309.863 413.413, 373.288 373.830, 397.635 310.789 C 408.536 282.562, 410.660 249.768, 403.502 220.207 C 389.166 161.001, 342.285 117.092, 282.013 106.420 C 271.397 104.541, 248.940 103.817, 239 105.035 M 236.863 121.007 C 198.019 127.162, 164.244 148.767, 142.295 181.500 C 133.748 194.245, 127.540 208.715, 123.221 225.956 C 120.851 235.412, 120.575 238.409, 120.539 255 C 120.496 275.463, 121.369 281.663, 126.536 297.585 C 137.803 332.306, 162.904 361.371, 195.987 378.006 C 205.162 382.620, 213.790 385.728, 225.956 388.803 C 235.691 391.263, 238.034 391.463, 256.500 391.410 C 275.595 391.356, 277.031 391.212, 288.251 388.245 C 338.393 374.983, 374.950 338.428, 388.252 288.251 C 391.256 276.921, 391.367 275.765, 391.367 256 C 391.367 236.235, 391.256 235.079, 388.252 223.749 C 374.932 173.503, 338.091 136.693, 288.251 123.831 C 277.878 121.154, 274.507 120.758, 259.500 120.456 C 250.150 120.267, 239.963 120.515, 236.863 121.007 M 239.221 129 C 210.247 133.083, 184.625 145.934, 164.380 166.538 C 147.223 183.999, 135.906 205.480, 130.390 231.053 C 127.864 242.765, 127.845 269.149, 130.354 280.768 C 136.006 306.947, 147.647 328.731, 165.477 346.500 C 184.050 365.010, 208.083 377.502, 234 382.118 C 243.654 383.837, 268.346 383.837, 278 382.118 C 303.938 377.498, 328.016 364.977, 346.496 346.496 C 361.119 331.874, 371.670 314.515, 377.799 295 C 382.171 281.078, 383.453 272.231, 383.453 256 C 383.453 239.769, 382.171 230.922, 377.799 217 C 365.607 178.176, 335.104 147.282, 296.500 134.657 C 292.100 133.218, 285.125 131.322, 281 130.444 C 272.181 128.565, 248.190 127.736, 239.221 129 M 247.976 199.750 L 247.952 251.500 223.722 266.710 C 210.396 275.075, 198.651 282.535, 197.622 283.287 C 195.837 284.592, 195.945 284.962, 199.967 291.330 C 202.606 295.509, 204.616 297.743, 205.341 297.303 C 205.979 296.917, 215.632 290.841, 226.794 283.800 C 237.955 276.760, 247.293 271, 247.544 271 C 247.795 271, 248 272.125, 248 273.500 C 248 275.958, 248.133 276, 256 276 L 264 276 264 268.112 L 264 260.223 270.559 256.111 C 274.977 253.341, 276.872 251.591, 276.366 250.749 C 272.888 244.970, 268.842 239, 268.404 239 C 268.109 239, 266.998 239.466, 265.934 240.035 C 264.035 241.052, 264 240.233, 264 194.535 L 264 148 256 148 L 248 148 247.976 199.750 M 39.289 336.109 C 37.443 336.642, 36.257 337.561, 36.500 338.269 C 36.733 338.946, 40.113 350.750, 44.010 364.500 C 47.908 378.250, 51.331 390.288, 51.616 391.250 C 51.994 392.525, 53.183 393, 56 393 C 58.817 393, 60.006 392.525, 60.384 391.250 C 60.669 390.288, 64.092 378.250, 67.990 364.500 C 71.887 350.750, 75.264 338.953, 75.494 338.285 C 75.888 337.135, 69.129 334.537, 68.190 335.477 C 67.957 335.710, 65.345 344.360, 62.385 354.700 C 59.426 365.040, 56.730 374.175, 56.394 375 C 55.898 376.220, 50.654 359.614, 44.948 338.750 C 44.384 336.688, 43.603 335.041, 43.211 335.090 C 42.820 335.140, 41.055 335.598, 39.289 336.109 M 80 364 L 80 392 84 392 L 88 392 88 364 L 88 336 84 336 L 80 336 80 364 M 96 364 L 96 392 100 392 L 104 392 104 364 L 104 336 100 336 L 96 336 96 364 M 146.250 422.406 C 137.863 435.799, 131 447.184, 131 447.704 C 131 448.225, 132.087 449.673, 133.416 450.921 L 135.831 453.190 161.601 440.576 C 175.774 433.639, 187.545 427.788, 187.759 427.574 C 188.402 426.932, 185.022 421, 184.013 421 C 183.499 421, 174.896 425.061, 164.896 430.024 C 154.897 434.987, 146.538 438.871, 146.322 438.655 C 146.105 438.439, 150.895 430.335, 156.964 420.647 C 163.034 410.958, 168 402.647, 168 402.176 C 168 401.706, 166.762 400.701, 165.250 399.943 C 163.738 399.184, 162.275 398.449, 162 398.309 C 161.725 398.169, 154.637 409.012, 146.250 422.406 M 171.981 447.580 C 161.266 457.249, 151.931 465.709, 151.236 466.380 C 150.224 467.356, 150.552 468.154, 152.875 470.381 L 155.779 473.162 176.444 454.442 L 197.109 435.723 194.367 432.861 C 192.859 431.288, 191.589 430, 191.544 430 C 191.498 430, 182.695 437.911, 171.981 447.580" stroke="none" fill="black" fill-rule="evenodd"/>
</svg>